<mxfile host="app.diagrams.net" agent="Mozilla/5.0 (Windows NT 10.0; Win64; x64; rv:138.0) Gecko/20100101 Firefox/138.0" version="26.2.14">
  <diagram name="Page-1" id="eJc1kFHhdNzkMqx-LMUR">
    <mxGraphModel dx="541" dy="327" grid="1" gridSize="10" guides="1" tooltips="1" connect="1" arrows="1" fold="1" page="1" pageScale="1" pageWidth="850" pageHeight="1100" math="0" shadow="0">
      <root>
        <mxCell id="0" />
        <mxCell id="1" parent="0" />
        <mxCell id="DcYyKn9MSqfEjiJO_MlC-43" value="S" style="ellipse;whiteSpace=wrap;html=1;aspect=fixed;fontFamily=Modern;fontSource=https%3A%2F%2Fsourceforge.net%2Fprojects%2Fcm-unicode%2F;" parent="1" vertex="1">
          <mxGeometry x="110" y="160" width="40" height="40" as="geometry" />
        </mxCell>
        <mxCell id="DcYyKn9MSqfEjiJO_MlC-44" value="A" style="ellipse;whiteSpace=wrap;html=1;aspect=fixed;fontFamily=Modern;fontSource=https%3A%2F%2Fsourceforge.net%2Fprojects%2Fcm-unicode%2F;" parent="1" vertex="1">
          <mxGeometry x="80" y="240" width="40" height="40" as="geometry" />
        </mxCell>
        <mxCell id="DcYyKn9MSqfEjiJO_MlC-45" value="B" style="ellipse;whiteSpace=wrap;html=1;aspect=fixed;fontFamily=Modern;fontSource=https%3A%2F%2Fsourceforge.net%2Fprojects%2Fcm-unicode%2F;" parent="1" vertex="1">
          <mxGeometry x="180" y="170" width="40" height="40" as="geometry" />
        </mxCell>
        <mxCell id="DcYyKn9MSqfEjiJO_MlC-48" value="C" style="ellipse;whiteSpace=wrap;html=1;aspect=fixed;fontFamily=Modern;fontSource=https%3A%2F%2Fsourceforge.net%2Fprojects%2Fcm-unicode%2F;" parent="1" vertex="1">
          <mxGeometry x="160" y="250" width="40" height="40" as="geometry" />
        </mxCell>
        <mxCell id="DcYyKn9MSqfEjiJO_MlC-50" value="" style="endArrow=none;html=1;rounded=0;entryX=1;entryY=0.5;entryDx=0;entryDy=0;exitX=0;exitY=0;exitDx=0;exitDy=0;fontFamily=Modern;fontSource=https%3A%2F%2Fsourceforge.net%2Fprojects%2Fcm-unicode%2F;" parent="1" source="DcYyKn9MSqfEjiJO_MlC-45" target="DcYyKn9MSqfEjiJO_MlC-43" edge="1">
          <mxGeometry width="50" height="50" relative="1" as="geometry">
            <mxPoint x="110" y="270" as="sourcePoint" />
            <mxPoint x="127" y="202" as="targetPoint" />
          </mxGeometry>
        </mxCell>
        <mxCell id="DcYyKn9MSqfEjiJO_MlC-51" value="" style="endArrow=none;html=1;rounded=0;entryX=0.5;entryY=0;entryDx=0;entryDy=0;exitX=0;exitY=1;exitDx=0;exitDy=0;fontFamily=Modern;fontSource=https%3A%2F%2Fsourceforge.net%2Fprojects%2Fcm-unicode%2F;" parent="1" source="DcYyKn9MSqfEjiJO_MlC-43" target="DcYyKn9MSqfEjiJO_MlC-44" edge="1">
          <mxGeometry width="50" height="50" relative="1" as="geometry">
            <mxPoint x="160" y="226" as="sourcePoint" />
            <mxPoint x="84" y="220" as="targetPoint" />
          </mxGeometry>
        </mxCell>
        <mxCell id="DcYyKn9MSqfEjiJO_MlC-52" value="" style="endArrow=none;html=1;rounded=0;entryX=0.738;entryY=0.932;entryDx=0;entryDy=0;entryPerimeter=0;fontFamily=Modern;fontSource=https%3A%2F%2Fsourceforge.net%2Fprojects%2Fcm-unicode%2F;" parent="1" source="DcYyKn9MSqfEjiJO_MlC-48" target="DcYyKn9MSqfEjiJO_MlC-43" edge="1">
          <mxGeometry width="50" height="50" relative="1" as="geometry">
            <mxPoint x="130" y="280" as="sourcePoint" />
            <mxPoint x="180" y="230" as="targetPoint" />
          </mxGeometry>
        </mxCell>
        <mxCell id="DcYyKn9MSqfEjiJO_MlC-53" value="" style="endArrow=none;html=1;rounded=0;entryX=0;entryY=0.5;entryDx=0;entryDy=0;exitX=0.967;exitY=0.691;exitDx=0;exitDy=0;fontFamily=Modern;fontSource=https%3A%2F%2Fsourceforge.net%2Fprojects%2Fcm-unicode%2F;exitPerimeter=0;" parent="1" source="DcYyKn9MSqfEjiJO_MlC-44" target="DcYyKn9MSqfEjiJO_MlC-48" edge="1">
          <mxGeometry width="50" height="50" relative="1" as="geometry">
            <mxPoint x="90" y="260" as="sourcePoint" />
            <mxPoint x="140" y="210" as="targetPoint" />
          </mxGeometry>
        </mxCell>
        <mxCell id="DcYyKn9MSqfEjiJO_MlC-54" value="" style="endArrow=none;html=1;rounded=0;exitX=1;exitY=0;exitDx=0;exitDy=0;entryX=0.5;entryY=1;entryDx=0;entryDy=0;fontFamily=Modern;fontSource=https%3A%2F%2Fsourceforge.net%2Fprojects%2Fcm-unicode%2F;" parent="1" source="DcYyKn9MSqfEjiJO_MlC-48" target="DcYyKn9MSqfEjiJO_MlC-45" edge="1">
          <mxGeometry width="50" height="50" relative="1" as="geometry">
            <mxPoint x="210" y="280" as="sourcePoint" />
            <mxPoint x="260" y="230" as="targetPoint" />
          </mxGeometry>
        </mxCell>
        <mxCell id="DcYyKn9MSqfEjiJO_MlC-55" value="D" style="ellipse;whiteSpace=wrap;html=1;aspect=fixed;fontFamily=Modern;fontSource=https%3A%2F%2Fsourceforge.net%2Fprojects%2Fcm-unicode%2F;" parent="1" vertex="1">
          <mxGeometry x="160" y="340" width="40" height="40" as="geometry" />
        </mxCell>
        <mxCell id="DcYyKn9MSqfEjiJO_MlC-57" value="" style="endArrow=none;html=1;rounded=0;exitX=0.5;exitY=1;exitDx=0;exitDy=0;entryX=0.04;entryY=0.295;entryDx=0;entryDy=0;entryPerimeter=0;fontFamily=Modern;fontSource=https%3A%2F%2Fsourceforge.net%2Fprojects%2Fcm-unicode%2F;" parent="1" source="DcYyKn9MSqfEjiJO_MlC-44" target="DcYyKn9MSqfEjiJO_MlC-55" edge="1">
          <mxGeometry width="50" height="50" relative="1" as="geometry">
            <mxPoint x="120" y="340" as="sourcePoint" />
            <mxPoint x="170" y="290" as="targetPoint" />
          </mxGeometry>
        </mxCell>
        <mxCell id="DcYyKn9MSqfEjiJO_MlC-58" value="E" style="ellipse;whiteSpace=wrap;html=1;aspect=fixed;fontFamily=Modern;fontSource=https%3A%2F%2Fsourceforge.net%2Fprojects%2Fcm-unicode%2F;" parent="1" vertex="1">
          <mxGeometry x="220" y="300" width="40" height="40" as="geometry" />
        </mxCell>
        <mxCell id="DcYyKn9MSqfEjiJO_MlC-59" value="" style="endArrow=none;html=1;rounded=0;exitX=1;exitY=1;exitDx=0;exitDy=0;entryX=0.5;entryY=0;entryDx=0;entryDy=0;fontFamily=Modern;fontSource=https%3A%2F%2Fsourceforge.net%2Fprojects%2Fcm-unicode%2F;" parent="1" source="DcYyKn9MSqfEjiJO_MlC-45" target="DcYyKn9MSqfEjiJO_MlC-58" edge="1">
          <mxGeometry width="50" height="50" relative="1" as="geometry">
            <mxPoint x="230" y="220" as="sourcePoint" />
            <mxPoint x="332" y="322" as="targetPoint" />
          </mxGeometry>
        </mxCell>
        <mxCell id="DcYyKn9MSqfEjiJO_MlC-60" value="" style="endArrow=none;html=1;rounded=0;exitX=0;exitY=1;exitDx=0;exitDy=0;entryX=1;entryY=0;entryDx=0;entryDy=0;fontFamily=Modern;fontSource=https%3A%2F%2Fsourceforge.net%2Fprojects%2Fcm-unicode%2F;" parent="1" source="DcYyKn9MSqfEjiJO_MlC-58" target="DcYyKn9MSqfEjiJO_MlC-55" edge="1">
          <mxGeometry width="50" height="50" relative="1" as="geometry">
            <mxPoint x="224" y="214" as="sourcePoint" />
            <mxPoint x="270" y="320" as="targetPoint" />
          </mxGeometry>
        </mxCell>
        <mxCell id="DcYyKn9MSqfEjiJO_MlC-61" value="" style="endArrow=none;html=1;rounded=0;exitX=1;exitY=1;exitDx=0;exitDy=0;entryX=0.06;entryY=0.3;entryDx=0;entryDy=0;entryPerimeter=0;fontFamily=Modern;fontSource=https%3A%2F%2Fsourceforge.net%2Fprojects%2Fcm-unicode%2F;" parent="1" source="DcYyKn9MSqfEjiJO_MlC-48" target="DcYyKn9MSqfEjiJO_MlC-58" edge="1">
          <mxGeometry width="50" height="50" relative="1" as="geometry">
            <mxPoint x="256" y="354" as="sourcePoint" />
            <mxPoint x="214" y="386" as="targetPoint" />
          </mxGeometry>
        </mxCell>
        <mxCell id="DcYyKn9MSqfEjiJO_MlC-62" value="" style="endArrow=classic;html=1;rounded=0;" parent="1" edge="1">
          <mxGeometry width="50" height="50" relative="1" as="geometry">
            <mxPoint x="310" y="259.6" as="sourcePoint" />
            <mxPoint x="370" y="259.6" as="targetPoint" />
          </mxGeometry>
        </mxCell>
        <mxCell id="DcYyKn9MSqfEjiJO_MlC-67" style="edgeStyle=orthogonalEdgeStyle;rounded=0;orthogonalLoop=1;jettySize=auto;html=1;exitX=1;exitY=0.5;exitDx=0;exitDy=0;entryX=0;entryY=0.5;entryDx=0;entryDy=0;fontFamily=Modern;fontSource=https%3A%2F%2Fsourceforge.net%2Fprojects%2Fcm-unicode%2F;" parent="1" source="DcYyKn9MSqfEjiJO_MlC-63" target="DcYyKn9MSqfEjiJO_MlC-65" edge="1">
          <mxGeometry relative="1" as="geometry" />
        </mxCell>
        <mxCell id="DcYyKn9MSqfEjiJO_MlC-63" value="S" style="ellipse;whiteSpace=wrap;html=1;aspect=fixed;fontFamily=Modern;fontSource=https%3A%2F%2Fsourceforge.net%2Fprojects%2Fcm-unicode%2F;" parent="1" vertex="1">
          <mxGeometry x="410" y="240" width="40" height="40" as="geometry" />
        </mxCell>
        <mxCell id="DcYyKn9MSqfEjiJO_MlC-64" value="A" style="ellipse;whiteSpace=wrap;html=1;aspect=fixed;fontFamily=Modern;fontSource=https%3A%2F%2Fsourceforge.net%2Fprojects%2Fcm-unicode%2F;" parent="1" vertex="1">
          <mxGeometry x="490" y="190" width="40" height="40" as="geometry" />
        </mxCell>
        <mxCell id="DcYyKn9MSqfEjiJO_MlC-65" value="B" style="ellipse;whiteSpace=wrap;html=1;aspect=fixed;fontFamily=Modern;fontSource=https%3A%2F%2Fsourceforge.net%2Fprojects%2Fcm-unicode%2F;" parent="1" vertex="1">
          <mxGeometry x="490" y="240" width="40" height="40" as="geometry" />
        </mxCell>
        <mxCell id="DcYyKn9MSqfEjiJO_MlC-66" value="C" style="ellipse;whiteSpace=wrap;html=1;aspect=fixed;fontFamily=Modern;fontSource=https%3A%2F%2Fsourceforge.net%2Fprojects%2Fcm-unicode%2F;" parent="1" vertex="1">
          <mxGeometry x="490" y="290" width="40" height="40" as="geometry" />
        </mxCell>
        <mxCell id="DcYyKn9MSqfEjiJO_MlC-68" value="" style="endArrow=classic;html=1;rounded=0;entryX=0;entryY=0.5;entryDx=0;entryDy=0;exitX=1;exitY=1;exitDx=0;exitDy=0;fontFamily=Modern;fontSource=https%3A%2F%2Fsourceforge.net%2Fprojects%2Fcm-unicode%2F;" parent="1" source="DcYyKn9MSqfEjiJO_MlC-63" target="DcYyKn9MSqfEjiJO_MlC-66" edge="1">
          <mxGeometry width="50" height="50" relative="1" as="geometry">
            <mxPoint x="340" y="270" as="sourcePoint" />
            <mxPoint x="390" y="220" as="targetPoint" />
          </mxGeometry>
        </mxCell>
        <mxCell id="DcYyKn9MSqfEjiJO_MlC-69" value="" style="endArrow=classic;html=1;rounded=0;entryX=0;entryY=0.5;entryDx=0;entryDy=0;exitX=1;exitY=0;exitDx=0;exitDy=0;fontFamily=Modern;fontSource=https%3A%2F%2Fsourceforge.net%2Fprojects%2Fcm-unicode%2F;" parent="1" source="DcYyKn9MSqfEjiJO_MlC-63" target="DcYyKn9MSqfEjiJO_MlC-64" edge="1">
          <mxGeometry width="50" height="50" relative="1" as="geometry">
            <mxPoint x="440" y="290" as="sourcePoint" />
            <mxPoint x="500" y="320" as="targetPoint" />
          </mxGeometry>
        </mxCell>
        <mxCell id="DcYyKn9MSqfEjiJO_MlC-70" value="D" style="ellipse;whiteSpace=wrap;html=1;aspect=fixed;fontFamily=Modern;fontSource=https%3A%2F%2Fsourceforge.net%2Fprojects%2Fcm-unicode%2F;" parent="1" vertex="1">
          <mxGeometry x="570" y="190" width="40" height="40" as="geometry" />
        </mxCell>
        <mxCell id="DcYyKn9MSqfEjiJO_MlC-72" style="edgeStyle=orthogonalEdgeStyle;rounded=0;orthogonalLoop=1;jettySize=auto;html=1;exitX=1;exitY=0.5;exitDx=0;exitDy=0;entryX=0;entryY=0.5;entryDx=0;entryDy=0;fontFamily=Modern;fontSource=https%3A%2F%2Fsourceforge.net%2Fprojects%2Fcm-unicode%2F;" parent="1" edge="1">
          <mxGeometry relative="1" as="geometry">
            <mxPoint x="530" y="209.75" as="sourcePoint" />
            <mxPoint x="570" y="209.75" as="targetPoint" />
            <Array as="points">
              <mxPoint x="550" y="210" />
              <mxPoint x="550" y="210" />
            </Array>
          </mxGeometry>
        </mxCell>
        <mxCell id="DcYyKn9MSqfEjiJO_MlC-73" value="E" style="ellipse;whiteSpace=wrap;html=1;aspect=fixed;fontFamily=Modern;fontSource=https%3A%2F%2Fsourceforge.net%2Fprojects%2Fcm-unicode%2F;" parent="1" vertex="1">
          <mxGeometry x="570" y="240" width="40" height="40" as="geometry" />
        </mxCell>
        <mxCell id="DcYyKn9MSqfEjiJO_MlC-74" style="edgeStyle=orthogonalEdgeStyle;rounded=0;orthogonalLoop=1;jettySize=auto;html=1;exitX=1;exitY=0.5;exitDx=0;exitDy=0;entryX=0;entryY=0.5;entryDx=0;entryDy=0;fontFamily=Modern;fontSource=https%3A%2F%2Fsourceforge.net%2Fprojects%2Fcm-unicode%2F;" parent="1" edge="1">
          <mxGeometry relative="1" as="geometry">
            <mxPoint x="530" y="259.75" as="sourcePoint" />
            <mxPoint x="570" y="259.75" as="targetPoint" />
            <Array as="points">
              <mxPoint x="550" y="260" />
              <mxPoint x="550" y="260" />
            </Array>
          </mxGeometry>
        </mxCell>
        <mxCell id="rYgSAaO-E5czmm-J_q_O-10" value="" style="endArrow=none;html=1;rounded=0;curved=1;fillColor=#fa6800;strokeColor=light-dark(#C73500,#00FF00);" edge="1" parent="1">
          <mxGeometry width="50" height="50" relative="1" as="geometry">
            <mxPoint x="230" y="180" as="sourcePoint" />
            <mxPoint x="230" y="180" as="targetPoint" />
            <Array as="points">
              <mxPoint x="230" y="200" />
              <mxPoint x="220" y="240" />
              <mxPoint x="210" y="280" />
              <mxPoint x="200" y="300" />
              <mxPoint x="170" y="300" />
              <mxPoint x="100" y="290" />
              <mxPoint x="80" y="280" />
              <mxPoint x="70" y="260" />
              <mxPoint x="80" y="240" />
              <mxPoint x="100" y="230" />
              <mxPoint x="150" y="250" />
              <mxPoint x="170" y="240" />
              <mxPoint x="180" y="220" />
              <mxPoint x="170" y="180" />
              <mxPoint x="190" y="160" />
              <mxPoint x="200" y="160" />
            </Array>
          </mxGeometry>
        </mxCell>
        <mxCell id="rYgSAaO-E5czmm-J_q_O-12" value="" style="ellipse;whiteSpace=wrap;html=1;rotation=-30;fillColor=none;strokeColor=light-dark(#000000,#00FF00);" vertex="1" parent="1">
          <mxGeometry x="145.61" y="304.45" width="130" height="70.55" as="geometry" />
        </mxCell>
      </root>
    </mxGraphModel>
  </diagram>
</mxfile>
